<?xml version="1.0" encoding="utf-8"?>
<!-- Generator: Adobe Illustrator 25.4.6, SVG Export Plug-In . SVG Version: 6.00 Build 0)  -->
<svg version="1.1" id="Layer_1" xmlns="http://www.w3.org/2000/svg" xmlns:xlink="http://www.w3.org/1999/xlink" x="0px" y="0px"
	 viewBox="0 0 33 33" style="enable-background:new 0 0 33 33;" xml:space="preserve">
<path d="M17.1,4.5H21c0.1,1.6,0.7,3.1,1.8,4.2c1.2,1,2.6,1.7,4.2,1.8v4c-1.4-0.1-2.9-0.4-4.2-1c-0.6-0.3-1.1-0.6-1.6-0.9v8.8
	c-0.1,1.4-0.5,2.8-1.4,3.9c-1.3,1.9-3.5,3.1-5.9,3.2c-1.4,0.1-2.9-0.3-4.1-1c-2-1.3-3.4-3.3-3.7-5.7v-1.5c0.4-4.1,4.1-7.2,8.2-6.8
	c0.2,0,0.3,0,0.5,0.1V18c-1-0.3-2.1-0.2-3,0.4c-0.6,0.4-1.1,1.1-1.4,1.8c-0.1,0.5-0.2,1.1-0.1,1.6c0.3,1.7,1.8,2.9,3.5,2.9
	c1.1-0.1,2.2-0.7,2.8-1.6c0.2-0.3,0.4-0.7,0.4-1.1c0.1-1.8,0.1-3.6,0.1-5.4V4.5z"/>
</svg>
