<svg fill="none" height="34" viewBox="0 0 33 34" width="33" xmlns="http://www.w3.org/2000/svg"><g fill="#000"><path d="m23.4631 2.03137h-13.61246c-2.19734.01982-4.29861.90269-5.8496 2.45778-1.55098 1.55509-2.42707 3.65746-2.43891 5.85265v13.5989c.004 2.2109.88491 4.33 2.44978 5.8933 1.56488 1.5634 3.68615 2.4434 5.89922 2.4474h13.61247c2.2026-.0199 4.3084-.907 5.8602-2.4686 1.5518-1.5615 2.4244-3.6716 2.4283-5.8721v-13.5989c-.0119-2.2056-.8964-4.31701-2.4604-5.8738s-3.6807-2.43267-5.8886-2.43663zm5.6719 21.90933c0 1.5028-.5976 2.944-1.6612 4.0066-1.0637 1.0626-2.5064 1.6596-4.0107 1.6596h-13.61246c-1.49377-.0159-2.92094-.6199-3.97157-1.6808s-1.6399-2.493-1.63982-3.9854v-13.5989c0-1.50276.59758-2.94398 1.66126-4.0066s2.50634-1.6596 4.01062-1.6596h13.61247c1.4938.01592 2.921.61991 3.9716 1.68081s1.6399 2.49304 1.6398 3.98539z"/><path d="m16.6872 9.35974c-1.5406 0-3.0466.45639-4.3275 1.31146-1.281.855-2.2794 2.0704-2.86894 3.4923-.58956 1.4219-.74381 2.9865-.44326 4.496.30056 1.5094 1.0424 2.896 2.1318 3.9843 1.0893 1.0882 2.4773 1.8294 3.9883 2.1296 1.511.3003 3.0771.1462 4.5005-.4428 1.4233-.589 2.6398-1.5864 3.4957-2.866.8559-1.2797 1.3128-2.7842 1.3128-4.3233-.004-2.0625-.826-4.0395-2.2859-5.498-1.4599-1.4584-3.4389-2.27957-5.5035-2.28356zm0 12.88876c-1.0111 0-1.9995-.2996-2.8402-.8607-.8407-.5612-1.496-1.3588-1.8829-2.292s-.4882-1.9601-.2909-2.9508c.1972-.9907.6841-1.9007 1.3991-2.615.715-.7142 1.6259-1.2006 2.6175-1.3977.9917-.197 2.0196-.0959 2.9538.2907.9341.3865 1.7325 1.0411 2.2943 1.881.5617.8398.8615 1.8272.8615 2.8373-.0039 1.3533-.5438 2.65-1.5017 3.6069s-2.2559 1.4963-3.6105 1.5003z"/><path d="m24.8093 7.07813c-.5215-.00001-1.0216.20696-1.3904.57533-.3687.36838-.5759.868-.5759 1.38896-.0003.25806.0503.51366.1489.75218.0987.2385.2434.4553.4259.6379.1826.1828.3995.3278.6383.4267.2387.0989.4947.1498.7532.1498s.5144-.0509.7532-.1498c.2387-.0989.4556-.2439.6383-.4267.1825-.1826.3272-.3994.4258-.6379.0986-.23852.1492-.49412.1489-.75218 0-.52096-.2071-1.02058-.5759-1.38896-.3687-.36837-.8688-.57533-1.3903-.57533z"/></g></svg>